# xmcd CD database file
#
# Track frame offsets:
#	150
#	25795
#	44402
#	68007
#	89145
#	110975
#	125682
#	147692
#	167390
#	192275
#
# Disc length: 2775 seconds
#
# Revision: 1
# Processed by: cddbd v1.5.2PL0 Copyright (c) Steve Scherf et al.
# Submitted via: CDex 1.88
#
DISCID=960ad50a
DTITLE=Ussiniun - Metshu
DYEAR=1900
DGENRE=Jazz
TTITLE0=Shatshitun
TTITLE1=Mamu ka taiak
TTITLE2=Shin mak kun
TTITLE3=Ninan e uiassiuiat
TTITLE4=Ka uitamatan
TTITLE5=Meshten peikuau
TTITLE6=Ekuan Mashten utakusset
TTITLE7=Utenat
TTITLE8=Metshu
TTITLE9=Neka, Nuta
EXTD=
EXTT0=
EXTT1=
EXTT2=
EXTT3=
EXTT4=
EXTT5=
EXTT6=
EXTT7=
EXTT8=
EXTT9=
PLAYORDER=
